<svg width="23" height="24" viewBox="0 0 29 30" fill="none" xmlns="http://www.w3.org/2000/svg">
<path d="M28.8392 11.3254C28.8362 11.2922 28.8296 11.2595 28.8194 11.2278C28.8128 11.1994 28.8037 11.1718 28.792 11.1451C28.7786 11.119 28.7625 11.0943 28.744 11.0715C28.7255 11.0444 28.704 11.0194 28.68 10.997C28.6723 10.9902 28.669 10.9811 28.6608 10.9744L24.0372 7.38349V3.66185C24.0372 2.8653 23.3915 2.21953 22.5949 2.21953H17.3848L15.2986 0.599791C14.7833 0.197856 14.0606 0.197856 13.5453 0.599791L11.4587 2.21953H6.24852C5.45197 2.21953 4.8062 2.86525 4.8062 3.66185V7.38354L0.184065 10.9744C0.175896 10.9812 0.172515 10.9903 0.164853 10.997C0.140908 11.0194 0.119442 11.0444 0.100906 11.0715C0.0824264 11.0944 0.066313 11.119 0.0528475 11.1451C0.041185 11.1718 0.0320578 11.1995 0.025466 11.2278C0.0154373 11.2591 0.00884548 11.2913 0.00574675 11.324C0.00574675 11.3341 0 11.3428 0 11.3529V27.7005C0.000676088 28.0063 0.0996103 28.3038 0.28221 28.549C0.285084 28.5534 0.285591 28.5587 0.288915 28.5625C0.292295 28.5663 0.299507 28.5707 0.304296 28.576C0.574393 28.9314 0.994469 29.1409 1.44086 29.1428H27.4026C27.8508 29.1415 28.2726 28.9309 28.543 28.5736C28.5469 28.5688 28.5527 28.5674 28.556 28.5626C28.5594 28.5578 28.5598 28.5534 28.5627 28.5491C28.7453 28.3038 28.8443 28.0063 28.845 27.7006V11.3542C28.8449 11.3441 28.8397 11.3354 28.8392 11.3254ZM14.1332 1.35842C14.3011 1.225 14.5389 1.225 14.7068 1.35842L15.8159 2.21947H13.0274L14.1332 1.35842ZM1.56199 28.1813L14.1333 18.4163C14.3013 18.2831 14.5389 18.2831 14.7068 18.4163L27.2814 28.1813H1.56199ZM27.8834 27.4318L15.2986 17.6576C14.7832 17.256 14.0607 17.256 13.5453 17.6576L0.960045 27.4318V12.0864L8.8385 18.2043C9.04842 18.367 9.35052 18.3288 9.51329 18.1189C9.67606 17.909 9.63786 17.6069 9.42793 17.4441L1.42401 11.2292L4.80625 8.60078V12.3157C4.80625 12.5813 5.02153 12.7965 5.28701 12.7965C5.55254 12.7965 5.76776 12.5812 5.76776 12.3157V3.66179C5.76776 3.39626 5.98298 3.18104 6.24852 3.18104H22.5948C22.8603 3.18104 23.0756 3.39626 23.0756 3.66179V12.3157C23.0756 12.5813 23.2908 12.7965 23.5563 12.7965C23.8218 12.7965 24.0371 12.5812 24.0371 12.3157V8.60078L27.4193 11.2292L19.4015 17.4552C19.2635 17.5597 19.1924 17.7303 19.2153 17.9019C19.2381 18.0735 19.3514 18.2195 19.512 18.2842C19.6725 18.349 19.8554 18.3225 19.9909 18.2148L27.8833 12.0864V27.4318H27.8834Z" fill="#3D48CF"/>
<path d="M20.1909 11.8344V9.91137C20.1909 6.72508 17.6079 4.14209 14.4216 4.14209C11.2353 4.14209 8.65234 6.72508 8.65234 9.91137C8.65234 13.0977 11.2353 15.6807 14.4216 15.6807C14.6872 15.6807 14.9024 15.4654 14.9024 15.1999C14.9024 14.9344 14.6872 14.7191 14.4216 14.7191C11.7664 14.7191 9.61391 12.5667 9.61391 9.91143C9.61391 7.25621 11.7664 5.10371 14.4216 5.10371C17.0768 5.10371 19.2293 7.25621 19.2293 9.91143V11.8345C19.2293 12.3656 18.7988 12.7961 18.2678 12.7961C17.7367 12.7961 17.3062 12.3656 17.3062 11.8345V9.91143C17.3062 9.6459 17.091 9.43067 16.8255 9.43067C16.5599 9.43067 16.3447 9.6459 16.3447 9.91143C16.3447 10.9735 15.4837 11.8345 14.4216 11.8345C13.3595 11.8345 12.4986 10.9735 12.4986 9.91143C12.4986 8.84935 13.3595 7.98835 14.4216 7.98835C14.6872 7.98835 14.9024 7.77313 14.9024 7.5076C14.9024 7.24207 14.6872 7.02684 14.4216 7.02684C13.1306 7.02397 11.9948 7.87928 11.641 9.12091C11.2872 10.3625 11.8014 11.6881 12.9 12.3662C13.9987 13.0443 15.4141 12.9099 16.3654 12.037C16.4701 13.0537 17.3538 13.8097 18.3744 13.7557C19.3952 13.7016 20.1941 12.8566 20.1909 11.8344Z" fill="#3D48CF"/>
</svg>
