<svg width="29" height="29" viewBox="0 0 37 37" fill="none" xmlns="http://www.w3.org/2000/svg">
<circle cx="18.4763" cy="18.1155" r="17.6275" fill="white" stroke="#3D48CF" stroke-width="0.801249"/>
<path d="M29.2405 13.4236C29.1916 12.3167 29.0126 11.5557 28.7561 10.8963C28.4916 10.1964 28.0845 9.56972 27.5512 9.04878C27.0302 8.51972 26.3993 8.10862 25.7073 7.84823C25.0439 7.59181 24.2868 7.41281 23.1797 7.36401C22.0643 7.31107 21.7102 7.29883 18.8812 7.29883C16.0523 7.29883 15.6982 7.31107 14.5869 7.35987C13.4798 7.40868 12.7187 7.58784 12.0593 7.8441C11.359 8.10862 10.7323 8.51559 10.2112 9.04878C9.68206 9.56972 9.27105 10.2005 9.01044 10.8924C8.75398 11.5557 8.57494 12.3126 8.52613 13.4195C8.47318 14.5347 8.46094 14.8887 8.46094 17.7171C8.46094 20.5455 8.47318 20.8996 8.52199 22.0106C8.57081 23.1175 8.75 23.8785 9.00647 24.5379C9.27105 25.2379 9.68206 25.8645 10.2112 26.3855C10.7323 26.9145 11.3632 27.3256 12.0552 27.586C12.7187 27.8424 13.4757 28.0214 14.583 28.0702C15.6941 28.1192 16.0483 28.1313 18.8772 28.1313C21.7062 28.1313 22.0603 28.1192 23.1715 28.0702C24.2787 28.0214 25.0398 27.8424 25.6992 27.586C27.0995 27.0447 28.2066 25.9378 28.748 24.5379C29.0043 23.8745 29.1835 23.1175 29.2323 22.0106C29.2812 20.8996 29.2934 20.5455 29.2934 17.7171C29.2934 14.8887 29.2893 14.5347 29.2405 13.4236ZM27.3641 21.9292C27.3192 22.9466 27.1483 23.496 27.0059 23.8623C26.6557 24.7699 25.9353 25.4902 25.0276 25.8402C24.6612 25.9826 24.1077 26.1535 23.0941 26.1982C21.9951 26.2472 21.6655 26.2593 18.8854 26.2593C16.1052 26.2593 15.7715 26.2472 14.6764 26.1982C13.6588 26.1535 13.1093 25.9826 12.743 25.8402C12.2913 25.6733 11.8801 25.4088 11.5464 25.0628C11.2004 24.725 10.9358 24.3181 10.7688 23.8664C10.6264 23.5002 10.4554 22.9466 10.4108 21.9333C10.3618 20.8345 10.3497 20.5048 10.3497 17.7252C10.3497 14.9456 10.3618 14.612 10.4108 13.5173C10.4554 12.4999 10.6264 11.9505 10.7688 11.5842C10.9358 11.1324 11.2004 10.7215 11.5505 10.3876C11.8882 10.0417 12.2952 9.77718 12.7471 9.61042C13.1135 9.46798 13.6671 9.29709 14.6806 9.25226C15.7796 9.20346 16.1094 9.19121 18.8893 9.19121C21.6736 9.19121 22.0032 9.20346 23.0982 9.25226C24.1159 9.29709 24.6654 9.46798 25.0317 9.61042C25.4834 9.77718 25.8946 10.0417 26.2283 10.3876C26.5743 10.7254 26.8389 11.1324 27.0059 11.5842C27.1483 11.9505 27.3192 12.5038 27.3641 13.5173C27.4129 14.6161 27.4251 14.9456 27.4251 17.7252C27.4251 20.5048 27.4129 20.8304 27.3641 21.9292Z" fill="#3D48CF"/>
<path d="M18.8775 12.4214C15.9551 12.4214 13.584 14.7923 13.584 17.7149C13.584 20.6374 15.9551 23.0084 18.8775 23.0084C21.8 23.0084 24.171 20.6374 24.171 17.7149C24.171 14.7923 21.8 12.4214 18.8775 12.4214ZM18.8775 21.1486C16.9816 21.1486 15.4437 19.6109 15.4437 17.7149C15.4437 15.8188 16.9816 14.2811 18.8775 14.2811C20.7735 14.2811 22.3112 15.8188 22.3112 17.7149C22.3112 19.6109 20.7735 21.1486 18.8775 21.1486Z" fill="#3D48CF"/>
<path d="M25.5371 12.0804C25.5371 12.8348 25.0019 13.4465 24.3417 13.4465C23.6817 13.4465 23.1465 12.8348 23.1465 12.0804C23.1465 11.3259 23.6817 10.7144 24.3417 10.7144C25.0019 10.7144 25.5371 11.3259 25.5371 12.0804Z" fill="#3D48CF"/>
</svg>
