<svg width="29" height="29" viewBox="0 0 37 37" fill="none" xmlns="http://www.w3.org/2000/svg">
<circle cx="18.1599" cy="18.1155" r="17.6275" fill="white" stroke="#3D48CF" stroke-width="0.801249"/>
<path d="M27.1717 7.29834H9.68808C8.76364 7.29834 8.01367 8.04831 8.01367 8.97275V26.4564C8.01367 27.3808 8.76364 28.1308 9.68808 28.1308H27.1717C28.0962 28.1308 28.8461 27.3808 28.8461 26.4564V8.97275C28.8461 8.04831 28.0962 7.29834 27.1717 7.29834ZM27.1717 26.4642C15.5108 26.4616 9.68027 26.459 9.68027 26.4564C9.68287 14.7954 9.68548 8.96494 9.68808 8.96494C21.3491 8.96754 27.1795 8.97015 27.1795 8.97275C27.1769 20.6337 27.1743 26.4642 27.1717 26.4642ZM11.1021 15.1079H14.1931V25.0502H11.1021V15.1079ZM12.6489 13.7486C13.6358 13.7486 14.4405 12.9465 14.4405 11.957C14.4405 11.7217 14.3941 11.4888 14.3041 11.2714C14.2141 11.054 14.0821 10.8565 13.9157 10.6902C13.7494 10.5238 13.5519 10.3918 13.3345 10.3018C13.1171 10.2117 12.8842 10.1654 12.6489 10.1654C12.4136 10.1654 12.1806 10.2117 11.9633 10.3018C11.7459 10.3918 11.5484 10.5238 11.382 10.6902C11.2157 10.8565 11.0837 11.054 10.9937 11.2714C10.9036 11.4888 10.8573 11.7217 10.8573 11.957C10.8547 12.9465 11.6567 13.7486 12.6489 13.7486ZM19.2189 20.1311C19.2189 18.8343 19.4663 17.5792 21.073 17.5792C22.6563 17.5792 22.6797 19.0609 22.6797 20.2145V25.0502H25.7681V19.5973C25.7681 16.9203 25.19 14.8605 22.0626 14.8605C20.56 14.8605 19.5523 15.686 19.1382 16.4672H19.0965V15.1079H16.1305V25.0502H19.2189V20.1311Z" fill="#3D48CF"/>
</svg>
