<svg width="24" height="24" viewBox="0 0 30 30" fill="none" xmlns="http://www.w3.org/2000/svg">
<path d="M28.8305 21.9542L24.6427 17.7646C24.0803 17.2051 23.3272 16.8968 22.5224 16.8968C21.6849 16.8968 20.8942 17.2266 20.2963 17.8248L18.6662 19.4546C17.3995 18.7505 15.7158 17.7821 13.9679 16.0342C12.2219 14.2876 11.2534 12.6089 10.5458 11.3354L12.1775 9.70488C13.3906 8.48922 13.4154 6.53892 12.233 5.35755L8.04601 1.17047C7.48517 0.608068 6.73207 0.29834 5.92526 0.29834C5.10647 0.29834 4.33192 0.613581 3.73751 1.18737C3.37792 1.47696 1.57337 3.06995 0.900818 6.35517C-0.0408309 10.9535 2.12271 15.3778 8.36856 21.6262C15.3457 28.6011 21.3021 29.1433 22.9615 29.1433C23.3069 29.1433 23.5154 29.122 23.571 29.1155C26.8249 28.7341 27.99 27.289 28.8407 26.2338C29.9429 24.8663 29.9391 23.0669 28.8305 21.9542ZM27.4409 25.1053C26.6413 26.0971 25.8862 27.0337 23.3618 27.3296C23.3605 27.3298 23.2224 27.3452 22.9615 27.3452C21.4769 27.3452 16.1283 26.8411 9.63996 20.3548C3.88015 14.5926 1.85853 10.641 2.66221 6.71572C3.24883 3.85026 4.80622 2.63233 4.86675 2.58606L4.92045 2.54638L4.96755 2.49916C5.22754 2.23941 5.56759 2.09629 5.92514 2.09629C6.25069 2.09629 6.55179 2.21832 6.77378 2.44102L10.9617 6.62906C11.4435 7.11043 11.4179 7.92047 10.9052 8.43421L9.05994 10.278L9.02961 10.3097C8.54872 10.8394 8.6053 11.5552 8.87019 12.0214C9.63457 13.4008 10.6816 15.2899 12.6962 17.3052C14.7042 19.3132 16.5906 20.3593 17.9662 21.1223C18.1039 21.1996 18.3882 21.3293 18.7441 21.3293C19.1643 21.3293 19.5502 21.1514 19.8358 20.8272L21.5676 19.0958C21.8261 18.8372 22.1651 18.6947 22.5222 18.6947C22.8485 18.6947 23.1511 18.817 23.3726 19.0373L27.5577 23.2242C28.0893 23.7577 27.8698 24.5734 27.4409 25.1053Z" fill="#3D48CF"/>
<path d="M18.244 4.70327C19.7887 4.88103 21.6075 5.81669 22.8776 7.08688C24.1595 8.36883 25.0975 10.2061 25.2668 11.7676C25.3168 12.2282 25.7064 12.5696 26.1594 12.5696C26.1918 12.5696 26.2246 12.5678 26.2575 12.5643C26.7511 12.5107 27.1078 12.0672 27.0542 11.5736C26.84 9.59983 25.7267 7.3935 24.149 5.81561C22.5859 4.25247 20.4022 3.14193 18.4496 2.91719C17.9566 2.86001 17.5106 3.21433 17.4537 3.70745C17.3969 4.20057 17.7506 4.64646 18.244 4.70327Z" fill="#3D48CF"/>
<path d="M17.4043 8.46907C18.2397 8.56532 19.3959 9.18501 20.1533 9.94243C20.9172 10.7064 21.5381 11.8737 21.6296 12.7181C21.6796 13.1789 22.0691 13.5202 22.5222 13.5202C22.5546 13.5202 22.5873 13.5184 22.6201 13.515C23.1137 13.4614 23.4706 13.0179 23.417 12.5243C23.2607 11.0826 22.3036 9.55012 21.4245 8.67104C20.5533 7.79975 19.0358 6.84719 17.6098 6.68286C17.1161 6.62544 16.6707 6.97988 16.6139 7.473C16.5572 7.96624 16.911 8.41225 17.4043 8.46907Z" fill="#3D48CF"/>
</svg>
