<svg width="29" height="29" viewBox="0 0 37 37" fill="none" xmlns="http://www.w3.org/2000/svg">
<circle cx="18.7927" cy="18.1155" r="17.6275" fill="white" stroke="#3D48CF" stroke-width="0.801249"/>
<path d="M27.8841 12.1871C27.2331 12.4726 26.5395 12.6619 25.8164 12.7538C26.5603 12.3096 27.1281 11.6117 27.3951 10.7704C26.7015 11.1839 25.9356 11.476 25.1195 11.639C24.4609 10.9377 23.5223 10.5034 22.4983 10.5034C20.5115 10.5034 18.9121 12.116 18.9121 14.0929C18.9121 14.3773 18.9362 14.6508 18.9952 14.9112C16.0119 14.7657 13.372 13.3358 11.5986 11.1576C11.289 11.6948 11.1074 12.3096 11.1074 12.9715C11.1074 14.2143 11.7474 15.316 12.7014 15.9538C12.1248 15.9428 11.5592 15.7755 11.0801 15.5118C11.0801 15.5227 11.0801 15.537 11.0801 15.5512C11.0801 17.295 12.3239 18.7435 13.9551 19.0772C13.663 19.1571 13.3447 19.1953 13.0143 19.1953C12.7845 19.1953 12.5526 19.1822 12.3349 19.1341C12.7998 20.5552 14.1192 21.6 15.688 21.6339C14.4671 22.589 12.9169 23.1644 11.2387 23.1644C10.9444 23.1644 10.6621 23.1513 10.3799 23.1152C11.9695 24.1403 13.8534 24.7256 15.885 24.7256C22.4884 24.7256 26.0987 19.2555 26.0987 14.5141C26.0987 14.3554 26.0932 14.2023 26.0855 14.0502C26.7977 13.5448 27.3962 12.9135 27.8841 12.1871Z" fill="#3D48CF"/>
</svg>
